<svg xmlns="http://www.w3.org/2000/svg" xmlns:xlink="http://www.w3.org/1999/xlink" xmlns:lucid="lucid" width="1520" height="1011"><g transform="translate(-20 -20)" lucid:page-tab-id="fp8T8X9~zrjZ"><path d="M0 0h1760v1360H0z" fill="#fff"/><path d="M340 380h240v60H340z" fill="none"/><use xlink:href="#a" transform="matrix(1,0,0,1,340,380) translate(99.6604938271605 34.44444444444444)"/><path d="M1160 265.3a6 6 0 0 1 6-6h348a6 6 0 0 1 6 6v283a6 6 0 0 1-6 6h-348a6 6 0 0 1-6-6z" stroke="#5e5e5e" stroke-width="3" fill="#fff"/><path d="M1160 302.5h360m-360 187.9h360" stroke="#5e5e5e" stroke-width="3" fill="none"/><use xlink:href="#b" transform="matrix(1,0,0,1,1168,267.29629628163906) translate(122.32222222222225 18.53333333333333)"/><use xlink:href="#c" transform="matrix(1,0,0,1,1172,310.49629628163905) translate(0 28.577777777777793)"/><use xlink:href="#d" transform="matrix(1,0,0,1,1172,310.49629628163905) translate(19.13580246913579 28.577777777777793)"/><use xlink:href="#e" transform="matrix(1,0,0,1,1172,310.49629628163905) translate(142.34567901234558 28.577777777777793)"/><use xlink:href="#f" transform="matrix(1,0,0,1,1172,310.49629628163905) translate(171.91358024691345 28.577777777777793)"/><use xlink:href="#g" transform="matrix(1,0,0,1,1172,310.49629628163905) translate(0 60.57777777777778)"/><use xlink:href="#h" transform="matrix(1,0,0,1,1172,310.49629628163905) translate(20.98765432098764 60.57777777777778)"/><use xlink:href="#i" transform="matrix(1,0,0,1,1172,310.49629628163905) translate(131.67654320987646 60.57777777777778)"/><use xlink:href="#j" transform="matrix(1,0,0,1,1172,310.49629628163905) translate(144.26913580246904 60.57777777777778)"/><use xlink:href="#g" transform="matrix(1,0,0,1,1172,310.49629628163905) translate(0 95.24444444444443)"/><use xlink:href="#k" transform="matrix(1,0,0,1,1172,310.49629628163905) translate(20.98765432098764 95.24444444444443)"/><use xlink:href="#l" transform="matrix(1,0,0,1,1172,310.49629628163905) translate(63.67654320987651 95.24444444444443)"/><use xlink:href="#m" transform="matrix(1,0,0,1,1172,310.49629628163905) translate(0 124.93333333333332)"/><use xlink:href="#n" transform="matrix(1,0,0,1,1172,310.49629628163905) translate(19.518518518518512 124.93333333333332)"/><use xlink:href="#o" transform="matrix(1,0,0,1,1172,310.49629628163905) translate(132.72592592592585 124.93333333333332)"/><use xlink:href="#p" transform="matrix(1,0,0,1,1172,310.49629628163905) translate(0 152.13333333333333)"/><use xlink:href="#q" transform="matrix(1,0,0,1,1172,310.49629628163905) translate(19.518518518518512 152.13333333333333)"/><use xlink:href="#r" transform="matrix(1,0,0,1,1172,310.49629628163905) translate(96.27037037037033 152.13333333333333)"/><use xlink:href="#s" transform="matrix(1,0,0,1,1172,310.49629628163905) translate(108.86296296296291 152.13333333333333)"/><path d="M580 46a6 6 0 0 1 6-6h348a6 6 0 0 1 6 6v218a6 6 0 0 1-6 6H586a6 6 0 0 1-6-6z" stroke="#5e5e5e" stroke-width="3" fill="#fff"/><path d="M580 83.2h360M580 206.03h360" stroke="#5e5e5e" stroke-width="3" fill="none"/><use xlink:href="#t" transform="matrix(1,0,0,1,588,48) translate(130.5074074074074 18.53333333333333)"/><use xlink:href="#u" transform="matrix(1,0,0,1,592,91.19999999999999) translate(0 28.611111111111114)"/><use xlink:href="#v" transform="matrix(1,0,0,1,592,91.19999999999999) translate(19.135802469135797 28.611111111111114)"/><use xlink:href="#w" transform="matrix(1,0,0,1,592,91.19999999999999) translate(128.76543209876536 28.611111111111114)"/><use xlink:href="#x" transform="matrix(1,0,0,1,592,91.19999999999999) translate(141.11111111111103 28.611111111111114)"/><use xlink:href="#y" transform="matrix(1,0,0,1,592,91.19999999999999) translate(170.67901234567893 28.611111111111114)"/><use xlink:href="#u" transform="matrix(1,0,0,1,592,91.19999999999999) translate(0 55.27777777777777)"/><use xlink:href="#z" transform="matrix(1,0,0,1,592,91.19999999999999) translate(19.135802469135797 55.27777777777777)"/><use xlink:href="#w" transform="matrix(1,0,0,1,592,91.19999999999999) translate(136.17283950617275 55.27777777777777)"/><use xlink:href="#x" transform="matrix(1,0,0,1,592,91.19999999999999) translate(148.51851851851842 55.27777777777777)"/><use xlink:href="#A" transform="matrix(1,0,0,1,592,91.19999999999999) translate(178.08641975308632 55.27777777777777)"/><use xlink:href="#B" transform="matrix(1,0,0,1,592,91.19999999999999) translate(0 85.49999999999999)"/><use xlink:href="#C" transform="matrix(1,0,0,1,592,91.19999999999999) translate(20.370370370370367 85.49999999999999)"/><use xlink:href="#D" transform="matrix(1,0,0,1,592,91.19999999999999) translate(93.86049382716047 85.49999999999999)"/><path d="M40 326a6 6 0 0 1 6-6h348a6 6 0 0 1 6 6v249a6 6 0 0 1-6 6H46a6 6 0 0 1-6-6z" stroke="#5e5e5e" stroke-width="3" fill="#fff"/><path d="M40 363.2h360M40 516.43h360" stroke="#5e5e5e" stroke-width="3" fill="none"/><use xlink:href="#E" transform="matrix(1,0,0,1,48,328) translate(102.83518518518521 18.53333333333333)"/><use xlink:href="#B" transform="matrix(1,0,0,1,52,371.2) translate(0 32.46666666666667)"/><use xlink:href="#F" transform="matrix(1,0,0,1,52,371.2) translate(20.370370370370367 32.46666666666667)"/><use xlink:href="#G" transform="matrix(1,0,0,1,52,371.2) translate(100.15679012345676 32.46666666666667)"/><use xlink:href="#H" transform="matrix(1,0,0,1,52,371.2) translate(129.69876543209872 32.46666666666667)"/><use xlink:href="#p" transform="matrix(1,0,0,1,52,371.2) translate(0 61.266666666666666)"/><use xlink:href="#I" transform="matrix(1,0,0,1,52,371.2) translate(19.518518518518512 61.266666666666666)"/><use xlink:href="#J" transform="matrix(1,0,0,1,52,371.2) translate(0 89.8888888888889)"/><use xlink:href="#K" transform="matrix(1,0,0,1,52,371.2) translate(21.04938271604938 89.8888888888889)"/><use xlink:href="#L" transform="matrix(1,0,0,1,52,371.2) translate(127.75185185185184 89.8888888888889)"/><use xlink:href="#M" transform="matrix(1,0,0,1,52,371.2) translate(0 117.8)"/><use xlink:href="#N" transform="matrix(1,0,0,1,52,371.2) translate(19.1358024691358 117.8)"/><use xlink:href="#O" transform="matrix(1,0,0,1,52,371.2) translate(130.89999999999995 117.8)"/><path d="M1157.5 450.5h-756" stroke="#5e5e5e" stroke-width="2" fill="none"/><path d="M1158.5 451.5h-1.03v-2h1.03z" stroke="#5e5e5e" stroke-width=".05" fill="#5e5e5e"/><path d="M402.5 435.5v30M760 272.5v88a.5.5 0 0 0 .5.5.5.5 0 0 1 .5.5v89" stroke="#5e5e5e" stroke-width="2" fill="none"/><path d="M761 272.53h-2v-1.03h2z" stroke="#5e5e5e" stroke-width=".05" fill="#5e5e5e"/><path d="M746 449.5h30" stroke="#5e5e5e" stroke-width="2" fill="none"/><path d="M1080 391.67h50.68v36.66H1080z" fill="#fff" fill-opacity="0"/><g><use xlink:href="#P" transform="matrix(1,0,0,1,1085,396.66666666666663) translate(1.981481481481481 17.77777777777778)"/></g><path d="M420 706a6 6 0 0 1 6-6h348a6 6 0 0 1 6 6v299a6 6 0 0 1-6 6H426a6 6 0 0 1-6-6z" stroke="#5e5e5e" stroke-width="3" fill="#fff"/><path d="M420 743.2h360M420 946.57h360" stroke="#5e5e5e" stroke-width="3" fill="none"/><g><use xlink:href="#Q" transform="matrix(1,0,0,1,428,708) translate(129.8777777777778 18.53333333333333)"/></g><g><use xlink:href="#u" transform="matrix(1,0,0,1,432,751.2) translate(0 28.844444444444463)"/><use xlink:href="#R" transform="matrix(1,0,0,1,432,751.2) translate(19.135802469135797 28.844444444444463)"/><use xlink:href="#w" transform="matrix(1,0,0,1,432,751.2) translate(130.12345679012338 28.844444444444463)"/><use xlink:href="#S" transform="matrix(1,0,0,1,432,751.2) translate(142.46913580246905 28.844444444444463)"/><use xlink:href="#u" transform="matrix(1,0,0,1,432,751.2) translate(0 55.51111111111112)"/><use xlink:href="#T" transform="matrix(1,0,0,1,432,751.2) translate(19.135802469135797 55.51111111111112)"/><use xlink:href="#w" transform="matrix(1,0,0,1,432,751.2) translate(128.95061728395055 55.51111111111112)"/><use xlink:href="#U" transform="matrix(1,0,0,1,432,751.2) translate(141.29629629629622 55.51111111111112)"/><use xlink:href="#V" transform="matrix(1,0,0,1,432,751.2) translate(0 82.53333333333333)"/><use xlink:href="#W" transform="matrix(1,0,0,1,432,751.2) translate(19.135802469135797 82.53333333333333)"/><use xlink:href="#w" transform="matrix(1,0,0,1,432,751.2) translate(115.9123456790123 82.53333333333333)"/><use xlink:href="#X" transform="matrix(1,0,0,1,432,751.2) translate(128.25802469135797 82.53333333333333)"/><use xlink:href="#B" transform="matrix(1,0,0,1,432,751.2) translate(0 112.93333333333332)"/><use xlink:href="#Y" transform="matrix(1,0,0,1,432,751.2) translate(20.370370370370367 112.93333333333332)"/><use xlink:href="#u" transform="matrix(1,0,0,1,432,751.2) translate(0 141.37777777777777)"/><use xlink:href="#Z" transform="matrix(1,0,0,1,432,751.2) translate(19.135802469135797 141.37777777777777)"/><use xlink:href="#u" transform="matrix(1,0,0,1,432,751.2) translate(0 168.04444444444442)"/><use xlink:href="#aa" transform="matrix(1,0,0,1,432,751.2) translate(19.135802469135797 168.04444444444442)"/><use xlink:href="#x" transform="matrix(1,0,0,1,432,751.2) translate(142.3456790123456 168.04444444444442)"/><use xlink:href="#ab" transform="matrix(1,0,0,1,432,751.2) translate(171.9135802469135 168.04444444444442)"/></g><path d="M661.22 697.5v-64.35a6 6 0 0 1 6-6h633.6a6 6 0 0 0 6.02-6V555.8" stroke="#5e5e5e" stroke-width="2" fill="none"/><path d="M662.22 698.5h-2v-1.03h2z" stroke="#5e5e5e" stroke-width=".05" fill="#5e5e5e"/><path d="M1321.84 556.8h-30" stroke="#5e5e5e" stroke-width="2" fill="none"/><path d="M680 660h50.68v36.67H680z" fill="#fff" fill-opacity="0"/><g><use xlink:href="#ac" transform="matrix(1,0,0,1,685,665) translate(-6.012345679012345 17.77777777777778)"/></g><path d="M1160 706a6 6 0 0 1 6-6h348a6 6 0 0 1 6 6v283a6 6 0 0 1-6 6h-348a6 6 0 0 1-6-6z" stroke="#5e5e5e" stroke-width="3" fill="#fff"/><path d="M1160 743.2h360m-360 187.9h360" stroke="#5e5e5e" stroke-width="3" fill="none"/><g><use xlink:href="#ad" transform="matrix(1,0,0,1,1168,708) translate(139.32222222222225 18.53333333333333)"/></g><g><use xlink:href="#u" transform="matrix(1,0,0,1,1172,751.2) translate(0 28.577777777777783)"/><use xlink:href="#ae" transform="matrix(1,0,0,1,1172,751.2) translate(19.135802469135797 28.577777777777783)"/><use xlink:href="#af" transform="matrix(1,0,0,1,1172,751.2) translate(0 60.57777777777778)"/><use xlink:href="#ag" transform="matrix(1,0,0,1,1172,751.2) translate(20.98765432098765 60.57777777777778)"/><use xlink:href="#r" transform="matrix(1,0,0,1,1172,751.2) translate(131.6765432098765 60.57777777777778)"/><use xlink:href="#ah" transform="matrix(1,0,0,1,1172,751.2) translate(144.2691358024691 60.57777777777778)"/><use xlink:href="#af" transform="matrix(1,0,0,1,1172,751.2) translate(0 95.24444444444444)"/><use xlink:href="#ai" transform="matrix(1,0,0,1,1172,751.2) translate(20.98765432098765 95.24444444444444)"/><use xlink:href="#aj" transform="matrix(1,0,0,1,1172,751.2) translate(63.67654320987652 95.24444444444444)"/><use xlink:href="#p" transform="matrix(1,0,0,1,1172,751.2) translate(0 124.93333333333332)"/><use xlink:href="#ak" transform="matrix(1,0,0,1,1172,751.2) translate(19.518518518518512 124.93333333333332)"/><use xlink:href="#r" transform="matrix(1,0,0,1,1172,751.2) translate(63.592592592592574 124.93333333333332)"/><use xlink:href="#al" transform="matrix(1,0,0,1,1172,751.2) translate(76.18518518518516 124.93333333333332)"/><use xlink:href="#p" transform="matrix(1,0,0,1,1172,751.2) translate(0 152.13333333333333)"/><use xlink:href="#am" transform="matrix(1,0,0,1,1172,751.2) translate(19.518518518518512 152.13333333333333)"/><use xlink:href="#r" transform="matrix(1,0,0,1,1172,751.2) translate(113.83703703703699 152.13333333333333)"/><use xlink:href="#s" transform="matrix(1,0,0,1,1172,751.2) translate(126.42962962962957 152.13333333333333)"/></g><path d="M1240 581h50.68v36.67H1240z" fill="#fff" fill-opacity="0"/><g><use xlink:href="#a" transform="matrix(1,0,0,1,1245,586) translate(0.16049382716049365 17.77777777777778)"/></g><path d="M782.5 836.14h376" stroke="#5e5e5e" stroke-width="2" fill="none"/><path d="M782.53 837.14h-1.03v-2h1.03z" stroke="#5e5e5e" stroke-width=".05" fill="#5e5e5e"/><path d="M1157.5 851.14v-30" stroke="#5e5e5e" stroke-width="2" fill="none"/><path d="M800 780h50.68v36.67H800z" fill="#fff" fill-opacity="0"/><g><use xlink:href="#an" transform="matrix(1,0,0,1,805,785) translate(0.16049382716049365 17.77777777777778)"/></g><path d="M1100 780h50.68v36.67H1100z" fill="#fff" fill-opacity="0"/><g><use xlink:href="#a" transform="matrix(1,0,0,1,1105,785) translate(0.16049382716049365 17.77777777777778)"/></g><path d="M1026.67 840c0 22.1-23.88 40-53.34 40-29.45 0-53.33-17.9-53.33-40s23.88-40 53.33-40c29.46 0 53.34 17.9 53.34 40z" stroke="#5e5e5e" stroke-width="3" fill="#fff"/><g><use xlink:href="#ao" transform="matrix(1,0,0,1,920,800) translate(41.53 44.775)"/></g><path d="M1073.33 621c0 22.1-44.77 40-100 40s-100-17.9-100-40 44.77-40 100-40 100 17.9 100 40z" stroke="#5e5e5e" stroke-width="3" fill="#fff"/><g><use xlink:href="#ap" transform="matrix(1,0,0,1,873.3333333333334,581) translate(28.919814814814853 45.977083333333326)"/></g><path d="M860 450.5c0 22.1-40.3 40-90 40s-90-17.9-90-40 40.3-40 90-40 90 17.9 90 40z" stroke="#5e5e5e" stroke-width="3" fill="#fff"/><g><use xlink:href="#aq" transform="matrix(1,0,0,1,680,410.5) translate(52.32166666666667 45.977083333333326)"/></g><defs><path fill="#333" d="M27 0v-27h64v-190l-56 39v-29l58-41h29v221h61V0H27" id="ar"/><path fill="#333" d="M33 0v-38h34V0H33" id="as"/><path fill="#333" d="M190 0L58-211 59 0H30v-248h39L202-35l-2-213h31V0h-41" id="at"/><g id="a"><use transform="matrix(0.06172839506172839,0,0,0.06172839506172839,0,0)" xlink:href="#ar"/><use transform="matrix(0.06172839506172839,0,0,0.06172839506172839,12.345679012345679,0)" xlink:href="#as"/><use transform="matrix(0.06172839506172839,0,0,0.06172839506172839,18.51851851851852,0)" xlink:href="#as"/><use transform="matrix(0.06172839506172839,0,0,0.06172839506172839,24.691358024691358,0)" xlink:href="#at"/></g><path fill-opacity=".85" d="M230 0l2-204L168 0h-37L68-204 70 0H24v-248h70l56 185 57-185h69V0h-46" id="au"/><path fill-opacity=".85" d="M185-48c-13 30-37 53-82 52C43 2 14-33 14-96s30-98 90-98c62 0 83 45 84 108H66c0 31 8 55 39 56 18 0 30-7 34-22zm-45-69c5-46-57-63-70-21-2 6-4 13-4 21h74" id="av"/><path fill-opacity=".85" d="M220-157c-53 9-28 100-34 157h-49v-107c1-27-5-49-29-50C55-147 81-57 75 0H25l-1-190h47c2 12-1 28 3 38 10-53 101-56 108 0 13-22 24-43 59-42 82 1 51 116 57 194h-49v-107c-1-25-5-48-29-50" id="aw"/><path fill-opacity=".85" d="M135-194c52 0 70 43 70 98 0 56-19 99-73 100-30 1-46-15-58-35L72 0H24l1-261h50v104c11-23 29-37 60-37zM114-30c31 0 40-27 40-66 0-37-7-63-39-63s-41 28-41 65c0 36 8 64 40 64" id="ax"/><path fill-opacity=".85" d="M135-150c-39-12-60 13-60 57V0H25l-1-190h47c2 13-1 29 3 40 6-28 27-53 61-41v41" id="ay"/><path fill-opacity=".85" d="M137-138c1-29-70-34-71-4 15 46 118 7 119 86 1 83-164 76-172 9l43-7c4 19 20 25 44 25 33 8 57-30 24-41C81-84 22-81 20-136c-2-80 154-74 161-7" id="az"/><g id="b"><use transform="matrix(0.06296296296296294,0,0,0.06296296296296294,0,0)" xlink:href="#au"/><use transform="matrix(0.06296296296296294,0,0,0.06296296296296294,18.82592592592592,0)" xlink:href="#av"/><use transform="matrix(0.06296296296296294,0,0,0.06296296296296294,31.418518518518507,0)" xlink:href="#aw"/><use transform="matrix(0.06296296296296294,0,0,0.06296296296296294,51.56666666666665,0)" xlink:href="#ax"/><use transform="matrix(0.06296296296296294,0,0,0.06296296296296294,65.35555555555553,0)" xlink:href="#av"/><use transform="matrix(0.06296296296296294,0,0,0.06296296296296294,77.9481481481481,0)" xlink:href="#ay"/><use transform="matrix(0.06296296296296294,0,0,0.06296296296296294,86.76296296296292,0)" xlink:href="#az"/></g><path fill="#333" d="M118-107v75H92v-75H18v-26h74v-75h26v75h74v26h-74" id="aA"/><use transform="matrix(0.06172839506172835,0,0,0.06172839506172835,0,0)" xlink:href="#aA" id="c"/><path fill="#333" d="M24-231v-30h32v30H24zM24 0v-190h32V0H24" id="aB"/><path fill="#333" d="M85-194c31 0 48 13 60 33l-1-100h32l1 261h-30c-2-10 0-23-3-31C134-8 116 4 85 4 32 4 16-35 15-94c0-66 23-100 70-100zm9 24c-40 0-46 34-46 75 0 40 6 74 45 74 42 0 51-32 51-76 0-42-9-74-50-73" id="aC"/><path fill="#333" d="M-5 72V49h209v23H-5" id="aD"/><path fill="#333" d="M210-169c-67 3-38 105-44 169h-31v-121c0-29-5-50-35-48C34-165 62-65 56 0H25l-1-190h30c1 10-1 24 2 32 10-44 99-50 107 0 11-21 27-35 58-36 85-2 47 119 55 194h-31v-121c0-29-5-49-35-48" id="aE"/><path fill="#333" d="M100-194c63 0 86 42 84 106H49c0 40 14 67 53 68 26 1 43-12 49-29l28 8c-11 28-37 45-77 45C44 4 14-33 15-96c1-61 26-98 85-98zm52 81c6-60-76-77-97-28-3 7-6 17-6 28h103" id="aF"/><path fill="#333" d="M115-194c53 0 69 39 70 98 0 66-23 100-70 100C84 3 66-7 56-30L54 0H23l1-261h32v101c10-23 28-34 59-34zm-8 174c40 0 45-34 45-75 0-40-5-75-45-74-42 0-51 32-51 76 0 43 10 73 51 73" id="aG"/><path fill="#333" d="M114-163C36-179 61-72 57 0H25l-1-190h30c1 12-1 29 2 39 6-27 23-49 58-41v29" id="aH"/><path fill="#333" d="M33-154v-36h34v36H33zM33 0v-36h34V0H33" id="aI"/><g id="d"><use transform="matrix(0.06172839506172835,0,0,0.06172839506172835,0,0)" xlink:href="#aB"/><use transform="matrix(0.06172839506172835,0,0,0.06172839506172835,4.87654320987654,0)" xlink:href="#aC"/><use transform="matrix(0.06172839506172835,0,0,0.06172839506172835,17.22222222222221,0)" xlink:href="#aD"/><use transform="matrix(0.06172839506172835,0,0,0.06172839506172835,29.56790123456788,0)" xlink:href="#aE"/><use transform="matrix(0.06172839506172835,0,0,0.06172839506172835,48.024691358024654,0)" xlink:href="#aF"/><use transform="matrix(0.06172839506172835,0,0,0.06172839506172835,60.370370370370324,0)" xlink:href="#aE"/><use transform="matrix(0.06172839506172835,0,0,0.06172839506172835,78.82716049382711,0)" xlink:href="#aG"/><use transform="matrix(0.06172839506172835,0,0,0.06172839506172835,91.17283950617278,0)" xlink:href="#aF"/><use transform="matrix(0.06172839506172835,0,0,0.06172839506172835,103.51851851851845,0)" xlink:href="#aH"/><use transform="matrix(0.06172839506172835,0,0,0.06172839506172835,110.86419753086412,0)" xlink:href="#aI"/></g><path fill="#333" d="M117-194c89-4 53 116 60 194h-32v-121c0-31-8-49-39-48C34-167 62-67 57 0H25l-1-190h30c1 10-1 24 2 32 11-22 29-35 61-36" id="aJ"/><path fill="#333" d="M59-47c-2 24 18 29 38 22v24C64 9 27 4 27-40v-127H5v-23h24l9-43h21v43h35v23H59v120" id="aK"/><g id="e"><use transform="matrix(0.06172839506172835,0,0,0.06172839506172835,0,0)" xlink:href="#aB"/><use transform="matrix(0.06172839506172835,0,0,0.06172839506172835,4.87654320987654,0)" xlink:href="#aJ"/><use transform="matrix(0.06172839506172835,0,0,0.06172839506172835,17.22222222222221,0)" xlink:href="#aK"/></g><path fill="#333" d="M87 75C49 33 22-17 22-94c0-76 28-126 65-167h31c-38 41-64 92-64 168S80 34 118 75H87" id="aL"/><path fill="#333" d="M115-194c55 1 70 41 70 98S169 2 115 4C84 4 66-9 55-30l1 105H24l-1-265h31l2 30c10-21 28-34 59-34zm-8 174c40 0 45-34 45-75s-6-73-45-74c-42 0-51 32-51 76 0 43 10 73 51 73" id="aM"/><path fill="#333" d="M143 0L79-87 56-68V0H24v-261h32v163l83-92h37l-77 82L181 0h-38" id="aN"/><path fill="#333" d="M33-261c38 41 65 92 65 168S71 34 33 75H2C39 34 66-17 66-93S39-220 2-261h31" id="aO"/><g id="f"><use transform="matrix(0.06172839506172835,0,0,0.06172839506172835,0,0)" xlink:href="#aL"/><use transform="matrix(0.06172839506172835,0,0,0.06172839506172835,7.345679012345673,0)" xlink:href="#aM"/><use transform="matrix(0.06172839506172835,0,0,0.06172839506172835,19.691358024691343,0)" xlink:href="#aN"/><use transform="matrix(0.06172839506172835,0,0,0.06172839506172835,30.802469135802447,0)" xlink:href="#aO"/></g><use transform="matrix(0.06172839506172835,0,0,0.06172839506172835,0,0)" xlink:href="#aA" id="g"/><path fill-opacity=".85" d="M24 0v-261h32V0H24" id="aP"/><path fill-opacity=".85" d="M141-36C126-15 110 5 73 4 37 3 15-17 15-53c-1-64 63-63 125-63 3-35-9-54-41-54-24 1-41 7-42 31l-33-3c5-37 33-52 76-52 45 0 72 20 72 64v82c-1 20 7 32 28 27v20c-31 9-61-2-59-35zM48-53c0 20 12 33 32 33 41-3 63-29 60-74-43 2-92-5-92 41" id="aQ"/><path fill-opacity=".85" d="M135-143c-3-34-86-38-87 0 15 53 115 12 119 90S17 21 10-45l28-5c4 36 97 45 98 0-10-56-113-15-118-90-4-57 82-63 122-42 12 7 21 19 24 35" id="aR"/><path fill-opacity=".85" d="M59-47c-2 24 18 29 38 22v24C64 9 27 4 27-40v-127H5v-23h24l9-43h21v43h35v23H59v120" id="aS"/><path fill-opacity=".85" d="M-5 72V49h209v23H-5" id="aT"/><path fill-opacity=".85" d="M117-194c89-4 53 116 60 194h-32v-121c0-31-8-49-39-48C34-167 62-67 57 0H25l-1-190h30c1 10-1 24 2 32 11-22 29-35 61-36" id="aU"/><path fill-opacity=".85" d="M210-169c-67 3-38 105-44 169h-31v-121c0-29-5-50-35-48C34-165 62-65 56 0H25l-1-190h30c1 10-1 24 2 32 10-44 99-50 107 0 11-21 27-35 58-36 85-2 47 119 55 194h-31v-121c0-29-5-49-35-48" id="aV"/><path fill-opacity=".85" d="M100-194c63 0 86 42 84 106H49c0 40 14 67 53 68 26 1 43-12 49-29l28 8c-11 28-37 45-77 45C44 4 14-33 15-96c1-61 26-98 85-98zm52 81c6-60-76-77-97-28-3 7-6 17-6 28h103" id="aW"/><g id="h"><use transform="matrix(0.06296296296296294,0,0,0.06296296296296294,0,0)" xlink:href="#aP"/><use transform="matrix(0.06296296296296294,0,0,0.06296296296296294,4.974074074074072,0)" xlink:href="#aQ"/><use transform="matrix(0.06296296296296294,0,0,0.06296296296296294,17.56666666666666,0)" xlink:href="#aR"/><use transform="matrix(0.06296296296296294,0,0,0.06296296296296294,28.89999999999999,0)" xlink:href="#aS"/><use transform="matrix(0.06296296296296294,0,0,0.06296296296296294,35.19629629629628,0)" xlink:href="#aT"/><use transform="matrix(0.06296296296296292,0,0,0.06296296296296292,47.78888888888887,0)" xlink:href="#aU"/><use transform="matrix(0.06296296296296292,0,0,0.06296296296296292,60.38148148148145,0)" xlink:href="#aQ"/><use transform="matrix(0.06296296296296292,0,0,0.06296296296296292,72.97407407407404,0)" xlink:href="#aV"/><use transform="matrix(0.06296296296296292,0,0,0.06296296296296292,91.79999999999995,0)" xlink:href="#aW"/></g><path fill-opacity=".85" d="M33-154v-36h34v36H33zM33 0v-36h34V0H33" id="aX"/><use transform="matrix(0.06296296296296294,0,0,0.06296296296296294,0,0)" xlink:href="#aX" id="i"/><path fill-opacity=".85" d="M114-163C36-179 61-72 57 0H25l-1-190h30c1 12-1 29 2 39 6-27 23-49 58-41v29" id="aY"/><path fill-opacity=".85" d="M24-231v-30h32v30H24zM24 0v-190h32V0H24" id="aZ"/><path fill-opacity=".85" d="M177-190C167-65 218 103 67 71c-23-6-38-20-44-43l32-5c15 47 100 32 89-28v-30C133-14 115 1 83 1 29 1 15-40 15-95c0-56 16-97 71-98 29-1 48 16 59 35 1-10 0-23 2-32h30zM94-22c36 0 50-32 50-73 0-42-14-75-50-75-39 0-46 34-46 75s6 73 46 73" id="ba"/><g id="j"><use transform="matrix(0.06296296296296294,0,0,0.06296296296296294,0,0)" xlink:href="#aR"/><use transform="matrix(0.06296296296296294,0,0,0.06296296296296294,11.33333333333333,0)" xlink:href="#aS"/><use transform="matrix(0.06296296296296294,0,0,0.06296296296296294,17.629629629629626,0)" xlink:href="#aY"/><use transform="matrix(0.06296296296296294,0,0,0.06296296296296294,25.122222222222216,0)" xlink:href="#aZ"/><use transform="matrix(0.06296296296296294,0,0,0.06296296296296294,30.096296296296288,0)" xlink:href="#aU"/><use transform="matrix(0.06296296296296294,0,0,0.06296296296296294,42.688888888888876,0)" xlink:href="#ba"/></g><path fill-opacity=".85" d="M101-234c-31-9-42 10-38 44h38v23H63V0H32v-167H5v-23h27c-7-52 17-82 69-68v24" id="bb"/><g id="k"><use transform="matrix(0.06296296296296294,0,0,0.06296296296296294,0,0)" xlink:href="#bb"/><use transform="matrix(0.06296296296296294,0,0,0.06296296296296294,6.296296296296294,0)" xlink:href="#aZ"/><use transform="matrix(0.06296296296296294,0,0,0.06296296296296294,11.270370370370365,0)" xlink:href="#aY"/><use transform="matrix(0.06296296296296294,0,0,0.06296296296296294,18.762962962962956,0)" xlink:href="#aR"/><use transform="matrix(0.06296296296296294,0,0,0.06296296296296294,30.096296296296288,0)" xlink:href="#aS"/></g><g id="l"><use transform="matrix(0.06296296296296294,0,0,0.06296296296296294,0,0)" xlink:href="#aU"/><use transform="matrix(0.06296296296296294,0,0,0.06296296296296294,12.592592592592588,0)" xlink:href="#aQ"/><use transform="matrix(0.06296296296296294,0,0,0.06296296296296294,25.185185185185176,0)" xlink:href="#aV"/><use transform="matrix(0.06296296296296294,0,0,0.06296296296296294,44.01111111111109,0)" xlink:href="#aW"/><use transform="matrix(0.08024691358024688,0,0,0.08024691358024688,56.60370370370368,0)" xlink:href="#aI"/><use transform="matrix(0.06296296296296294,0,0,0.06296296296296294,64.62839506172837,0)" xlink:href="#aR"/><use transform="matrix(0.06296296296296294,0,0,0.06296296296296294,75.9617283950617,0)" xlink:href="#aS"/><use transform="matrix(0.06296296296296294,0,0,0.06296296296296294,82.25802469135799,0)" xlink:href="#aY"/><use transform="matrix(0.06296296296296294,0,0,0.06296296296296294,89.75061728395058,0)" xlink:href="#aZ"/><use transform="matrix(0.06296296296296294,0,0,0.06296296296296294,94.72469135802464,0)" xlink:href="#aU"/><use transform="matrix(0.06296296296296294,0,0,0.06296296296296294,107.31728395061722,0)" xlink:href="#ba"/></g><path fill-opacity=".85" d="M118-107v75H92v-75H18v-26h74v-75h26v75h74v26h-74" id="bc"/><use transform="matrix(0.06296296296296294,0,0,0.06296296296296294,0,0)" xlink:href="#bc" id="m"/><path fill-opacity=".85" d="M85-194c31 0 48 13 60 33l-1-100h32l1 261h-30c-2-10 0-23-3-31C134-8 116 4 85 4 32 4 16-35 15-94c0-66 23-100 70-100zm9 24c-40 0-46 34-46 75 0 40 6 74 45 74 42 0 51-32 51-76 0-42-9-74-50-73" id="bd"/><path fill-opacity=".85" d="M115-194c53 0 69 39 70 98 0 66-23 100-70 100C84 3 66-7 56-30L54 0H23l1-261h32v101c10-23 28-34 59-34zm-8 174c40 0 45-34 45-75 0-40-5-75-45-74-42 0-51 32-51 76 0 43 10 73 51 73" id="be"/><path fill-opacity=".85" d="M106-169C34-169 62-67 57 0H25v-261h32l-1 103c12-21 28-36 61-36 89 0 53 116 60 194h-32v-121c2-32-8-49-39-48" id="bf"/><g id="n"><use transform="matrix(0.06296296296296294,0,0,0.06296296296296294,0,0)" xlink:href="#bd"/><use transform="matrix(0.06296296296296294,0,0,0.06296296296296294,12.592592592592588,0)" xlink:href="#aQ"/><use transform="matrix(0.06296296296296294,0,0,0.06296296296296294,25.185185185185176,0)" xlink:href="#aS"/><use transform="matrix(0.06296296296296294,0,0,0.06296296296296294,31.48148148148147,0)" xlink:href="#aW"/><use transform="matrix(0.06296296296296294,0,0,0.06296296296296294,44.07407407407406,0)" xlink:href="#aT"/><use transform="matrix(0.06296296296296294,0,0,0.06296296296296294,56.66666666666665,0)" xlink:href="#be"/><use transform="matrix(0.06296296296296294,0,0,0.06296296296296294,69.25925925925924,0)" xlink:href="#aZ"/><use transform="matrix(0.06296296296296294,0,0,0.06296296296296294,74.2333333333333,0)" xlink:href="#aY"/><use transform="matrix(0.06296296296296294,0,0,0.06296296296296294,81.72592592592589,0)" xlink:href="#aS"/><use transform="matrix(0.06296296296296294,0,0,0.06296296296296294,88.02222222222218,0)" xlink:href="#bf"/><use transform="matrix(0.06296296296296294,0,0,0.06296296296296294,100.61481481481476,0)" xlink:href="#aX"/></g><g id="o"><use transform="matrix(0.06296296296296294,0,0,0.06296296296296294,0,0)" xlink:href="#bd"/><use transform="matrix(0.06296296296296294,0,0,0.06296296296296294,12.592592592592588,0)" xlink:href="#aQ"/><use transform="matrix(0.06296296296296294,0,0,0.06296296296296294,25.185185185185176,0)" xlink:href="#aS"/><use transform="matrix(0.06296296296296294,0,0,0.06296296296296294,31.48148148148147,0)" xlink:href="#aW"/></g><use transform="matrix(0.06296296296296294,0,0,0.06296296296296294,0,0)" xlink:href="#bc" id="p"/><g id="q"><use transform="matrix(0.06296296296296294,0,0,0.06296296296296294,0,0)" xlink:href="#ba"/><use transform="matrix(0.06296296296296294,0,0,0.06296296296296294,12.592592592592588,0)" xlink:href="#aW"/><use transform="matrix(0.06296296296296294,0,0,0.06296296296296294,25.185185185185176,0)" xlink:href="#aU"/><use transform="matrix(0.06296296296296294,0,0,0.06296296296296294,37.777777777777764,0)" xlink:href="#bd"/><use transform="matrix(0.06296296296296294,0,0,0.06296296296296294,50.37037037037035,0)" xlink:href="#aW"/><use transform="matrix(0.06296296296296294,0,0,0.06296296296296294,62.96296296296294,0)" xlink:href="#aY"/></g><use transform="matrix(0.06296296296296294,0,0,0.06296296296296294,0,0)" xlink:href="#aX" id="r"/><g id="s"><use transform="matrix(0.06296296296296294,0,0,0.06296296296296294,0,0)" xlink:href="#aR"/><use transform="matrix(0.06296296296296294,0,0,0.06296296296296294,11.33333333333333,0)" xlink:href="#aS"/><use transform="matrix(0.06296296296296294,0,0,0.06296296296296294,17.629629629629626,0)" xlink:href="#aY"/><use transform="matrix(0.06296296296296294,0,0,0.06296296296296294,25.122222222222216,0)" xlink:href="#aZ"/><use transform="matrix(0.06296296296296294,0,0,0.06296296296296294,30.096296296296288,0)" xlink:href="#aU"/><use transform="matrix(0.06296296296296294,0,0,0.06296296296296294,42.688888888888876,0)" xlink:href="#ba"/></g><path fill-opacity=".85" d="M195-6C206 82 75 100 31 46c-4-6-6-13-8-21l49-6c3 16 16 24 34 25 40 0 42-37 40-79-11 22-30 35-61 35-53 0-70-43-70-97 0-56 18-96 73-97 30 0 46 14 59 34l2-30h47zm-90-29c32 0 41-27 41-63 0-35-9-62-40-62-32 0-39 29-40 63 0 36 9 62 39 62" id="bg"/><path fill-opacity=".85" d="M25-224v-37h50v37H25zM25 0v-190h50V0H25" id="bh"/><path fill-opacity=".85" d="M115-3C79 11 28 4 28-45v-112H4v-33h27l15-45h31v45h36v33H77v99c-1 23 16 31 38 25v30" id="bi"/><g id="t"><use transform="matrix(0.06296296296296294,0,0,0.06296296296296294,0,0)" xlink:href="#ay"/><use transform="matrix(0.06296296296296294,0,0,0.06296296296296294,8.814814814814811,0)" xlink:href="#av"/><use transform="matrix(0.06296296296296294,0,0,0.06296296296296294,21.407407407407398,0)" xlink:href="#bg"/><use transform="matrix(0.06296296296296294,0,0,0.06296296296296294,35.19629629629628,0)" xlink:href="#bh"/><use transform="matrix(0.06296296296296294,0,0,0.06296296296296294,41.49259259259257,0)" xlink:href="#az"/><use transform="matrix(0.06296296296296294,0,0,0.06296296296296294,54.08518518518516,0)" xlink:href="#bi"/><use transform="matrix(0.06296296296296294,0,0,0.06296296296296294,61.577777777777754,0)" xlink:href="#av"/><use transform="matrix(0.06296296296296294,0,0,0.06296296296296294,74.17037037037034,0)" xlink:href="#ay"/></g><use transform="matrix(0.06172839506172837,0,0,0.06172839506172837,0,0)" xlink:href="#aA" id="u"/><path fill="#333" d="M177-190C167-65 218 103 67 71c-23-6-38-20-44-43l32-5c15 47 100 32 89-28v-30C133-14 115 1 83 1 29 1 15-40 15-95c0-56 16-97 71-98 29-1 48 16 59 35 1-10 0-23 2-32h30zM94-22c36 0 50-32 50-73 0-42-14-75-50-75-39 0-46 34-46 75s6 73 46 73" id="bj"/><path fill="#333" d="M135-143c-3-34-86-38-87 0 15 53 115 12 119 90S17 21 10-45l28-5c4 36 97 45 98 0-10-56-113-15-118-90-4-57 82-63 122-42 12 7 21 19 24 35" id="bk"/><g id="v"><use transform="matrix(0.06172839506172837,0,0,0.06172839506172837,0,0)" xlink:href="#aB"/><use transform="matrix(0.06172839506172837,0,0,0.06172839506172837,4.876543209876541,0)" xlink:href="#aC"/><use transform="matrix(0.06172839506172837,0,0,0.06172839506172837,17.222222222222214,0)" xlink:href="#aD"/><use transform="matrix(0.06172839506172837,0,0,0.06172839506172837,29.567901234567888,0)" xlink:href="#aH"/><use transform="matrix(0.06172839506172837,0,0,0.06172839506172837,36.91358024691356,0)" xlink:href="#aF"/><use transform="matrix(0.06172839506172837,0,0,0.06172839506172837,49.25925925925924,0)" xlink:href="#bj"/><use transform="matrix(0.06172839506172837,0,0,0.06172839506172837,61.60493827160491,0)" xlink:href="#aB"/><use transform="matrix(0.06172839506172837,0,0,0.06172839506172837,66.48148148148145,0)" xlink:href="#bk"/><use transform="matrix(0.06172839506172837,0,0,0.06172839506172837,77.59259259259255,0)" xlink:href="#aK"/><use transform="matrix(0.06172839506172837,0,0,0.06172839506172837,83.76543209876539,0)" xlink:href="#aF"/><use transform="matrix(0.06172839506172837,0,0,0.06172839506172837,96.11111111111106,0)" xlink:href="#aH"/></g><use transform="matrix(0.06172839506172837,0,0,0.06172839506172837,0,0)" xlink:href="#aI" id="w"/><g id="x"><use transform="matrix(0.06172839506172837,0,0,0.06172839506172837,0,0)" xlink:href="#aB"/><use transform="matrix(0.06172839506172837,0,0,0.06172839506172837,4.876543209876541,0)" xlink:href="#aJ"/><use transform="matrix(0.06172839506172837,0,0,0.06172839506172837,17.222222222222214,0)" xlink:href="#aK"/></g><g id="y"><use transform="matrix(0.06172839506172837,0,0,0.06172839506172837,0,0)" xlink:href="#aL"/><use transform="matrix(0.06172839506172837,0,0,0.06172839506172837,7.345679012345676,0)" xlink:href="#aM"/><use transform="matrix(0.06172839506172837,0,0,0.06172839506172837,19.69135802469135,0)" xlink:href="#aN"/><use transform="matrix(0.06172839506172837,0,0,0.06172839506172837,30.802469135802458,0)" xlink:href="#aO"/></g><g id="z"><use transform="matrix(0.06172839506172837,0,0,0.06172839506172837,0,0)" xlink:href="#aB"/><use transform="matrix(0.06172839506172837,0,0,0.06172839506172837,4.876543209876541,0)" xlink:href="#aC"/><use transform="matrix(0.06172839506172837,0,0,0.06172839506172837,17.222222222222214,0)" xlink:href="#aD"/><use transform="matrix(0.06172839506172837,0,0,0.06172839506172837,29.567901234567888,0)" xlink:href="#aE"/><use transform="matrix(0.06172839506172837,0,0,0.06172839506172837,48.02469135802467,0)" xlink:href="#aF"/><use transform="matrix(0.06172839506172837,0,0,0.06172839506172837,60.37037037037034,0)" xlink:href="#aE"/><use transform="matrix(0.06172839506172837,0,0,0.06172839506172837,78.82716049382712,0)" xlink:href="#aG"/><use transform="matrix(0.06172839506172837,0,0,0.06172839506172837,91.17283950617279,0)" xlink:href="#aF"/><use transform="matrix(0.06172839506172837,0,0,0.06172839506172837,103.51851851851846,0)" xlink:href="#aH"/></g><path fill="#333" d="M63-220v92h138v28H63V0H30v-248h175v28H63" id="bl"/><g id="A"><use transform="matrix(0.06172839506172837,0,0,0.06172839506172837,0,0)" xlink:href="#aL"/><use transform="matrix(0.06172839506172837,0,0,0.06172839506172837,7.345679012345676,0)" xlink:href="#bl"/><use transform="matrix(0.06172839506172837,0,0,0.06172839506172837,20.86419753086419,0)" xlink:href="#aN"/><use transform="matrix(0.06172839506172837,0,0,0.06172839506172837,31.975308641975296,0)" xlink:href="#aO"/></g><use transform="matrix(0.061728395061728385,0,0,0.061728395061728385,0,0)" xlink:href="#aA" id="B"/><path fill-opacity=".85" d="M16-82v-28h88v28H16" id="bm"/><path fill-opacity=".85" d="M179-190L93 31C79 59 56 82 12 73V49c39 6 53-20 64-50L1-190h34L92-34l54-156h33" id="bn"/><g id="C"><use transform="matrix(0.06296296296296294,0,0,0.06296296296296294,0,0)" xlink:href="#aZ"/><use transform="matrix(0.06296296296296294,0,0,0.06296296296296294,4.974074074074072,0)" xlink:href="#bd"/><use transform="matrix(0.06296296296296294,0,0,0.06296296296296294,17.56666666666666,0)" xlink:href="#bm"/><use transform="matrix(0.06296296296296294,0,0,0.06296296296296294,25.05925925925925,0)" xlink:href="#ba"/><use transform="matrix(0.06296296296296294,0,0,0.06296296296296294,37.65185185185184,0)" xlink:href="#bn"/><use transform="matrix(0.06296296296296294,0,0,0.06296296296296294,48.985185185185166,0)" xlink:href="#aV"/></g><path fill-opacity=".85" d="M87 75C49 33 22-17 22-94c0-76 28-126 65-167h31c-38 41-64 92-64 168S80 34 118 75H87" id="bo"/><path fill-opacity=".85" d="M63-220v92h138v28H63V0H30v-248h175v28H63" id="bp"/><path fill-opacity=".85" d="M143 0L79-87 56-68V0H24v-261h32v163l83-92h37l-77 82L181 0h-38" id="bq"/><path fill-opacity=".85" d="M33-261c38 41 65 92 65 168S71 34 33 75H2C39 34 66-17 66-93S39-220 2-261h31" id="br"/><g id="D"><use transform="matrix(0.05679012345679012,0,0,0.05679012345679012,0,0)" xlink:href="#bo"/><use transform="matrix(0.05679012345679012,0,0,0.05679012345679012,6.758024691358024,0)" xlink:href="#bp"/><use transform="matrix(0.05679012345679012,0,0,0.05679012345679012,19.19506172839506,0)" xlink:href="#bq"/><use transform="matrix(0.05679012345679012,0,0,0.05679012345679012,29.417283950617282,0)" xlink:href="#br"/></g><path fill-opacity=".85" d="M123 10C108 53 80 86 19 72V37c35 8 53-11 59-39L3-190h52l48 148c12-52 28-100 44-148h51" id="bs"/><path fill-opacity=".85" d="M135-194c87-1 58 113 63 194h-50c-7-57 23-157-34-157-59 0-34 97-39 157H25l-1-190h47c2 12-1 28 3 38 12-26 28-41 61-42" id="bt"/><path fill-opacity=".85" d="M133-34C117-15 103 5 69 4 32 3 11-16 11-54c-1-60 55-63 116-61 1-26-3-47-28-47-18 1-26 9-28 27l-52-2c7-38 36-58 82-57s74 22 75 68l1 82c-1 14 12 18 25 15v27c-30 8-71 5-69-32zm-48 3c29 0 43-24 42-57-32 0-66-3-65 30 0 17 8 27 23 27" id="bu"/><path fill-opacity=".85" d="M85 4C-2 5 27-109 22-190h50c7 57-23 150 33 157 60-5 35-97 40-157h50l1 190h-47c-2-12 1-28-3-38-12 25-28 42-61 42" id="bv"/><g id="E"><use transform="matrix(0.06296296296296294,0,0,0.06296296296296294,0,0)" xlink:href="#bg"/><use transform="matrix(0.06296296296296294,0,0,0.06296296296296294,13.788888888888884,0)" xlink:href="#bs"/><use transform="matrix(0.06296296296296294,0,0,0.06296296296296294,26.381481481481472,0)" xlink:href="#aw"/><use transform="matrix(0.06296296296296294,0,0,0.06296296296296294,46.52962962962961,0)" xlink:href="#bt"/><use transform="matrix(0.06296296296296294,0,0,0.06296296296296294,60.318518518518495,0)" xlink:href="#bu"/><use transform="matrix(0.06296296296296294,0,0,0.06296296296296294,72.91111111111108,0)" xlink:href="#az"/><use transform="matrix(0.06296296296296294,0,0,0.06296296296296294,85.50370370370368,0)" xlink:href="#bh"/><use transform="matrix(0.06296296296296294,0,0,0.06296296296296294,91.79999999999997,0)" xlink:href="#bv"/><use transform="matrix(0.06296296296296294,0,0,0.06296296296296294,105.58888888888885,0)" xlink:href="#aw"/><use transform="matrix(0.06296296296296294,0,0,0.06296296296296294,125.73703703703698,0)" xlink:href="#az"/></g><g id="F"><use transform="matrix(0.06296296296296294,0,0,0.06296296296296294,0,0)" xlink:href="#aZ"/><use transform="matrix(0.06296296296296294,0,0,0.06296296296296294,4.974074074074072,0)" xlink:href="#bd"/><use transform="matrix(0.06296296296296294,0,0,0.06296296296296294,17.56666666666666,0)" xlink:href="#bm"/><use transform="matrix(0.06296296296296294,0,0,0.06296296296296294,25.05925925925925,0)" xlink:href="#ba"/><use transform="matrix(0.06296296296296294,0,0,0.06296296296296294,37.65185185185184,0)" xlink:href="#bn"/><use transform="matrix(0.06296296296296294,0,0,0.06296296296296294,48.985185185185166,0)" xlink:href="#aV"/><use transform="matrix(0.05679012345679012,0,0,0.05679012345679012,67.81111111111109,0)" xlink:href="#aX"/></g><g id="G"><use transform="matrix(0.06296296296296294,0,0,0.06296296296296294,0,0)" xlink:href="#aZ"/><use transform="matrix(0.06296296296296294,0,0,0.06296296296296294,4.974074074074072,0)" xlink:href="#aU"/><use transform="matrix(0.06296296296296294,0,0,0.06296296296296294,17.56666666666666,0)" xlink:href="#aS"/></g><path fill-opacity=".85" d="M115-194c55 1 70 41 70 98S169 2 115 4C84 4 66-9 55-30l1 105H24l-1-265h31l2 30c10-21 28-34 59-34zm-8 174c40 0 45-34 45-75s-6-73-45-74c-42 0-51 32-51 76 0 43 10 73 51 73" id="bw"/><g id="H"><use transform="matrix(0.05679012345679012,0,0,0.05679012345679012,0,0)" xlink:href="#bo"/><use transform="matrix(0.05679012345679012,0,0,0.05679012345679012,6.758024691358024,0)" xlink:href="#bw"/><use transform="matrix(0.05679012345679012,0,0,0.05679012345679012,18.11604938271605,0)" xlink:href="#bq"/><use transform="matrix(0.05679012345679012,0,0,0.05679012345679012,28.33827160493827,0)" xlink:href="#br"/></g><g id="I"><use transform="matrix(0.06296296296296294,0,0,0.06296296296296294,0,0)" xlink:href="#aU"/><use transform="matrix(0.06296296296296294,0,0,0.06296296296296294,12.592592592592588,0)" xlink:href="#aQ"/><use transform="matrix(0.06296296296296294,0,0,0.06296296296296294,25.185185185185176,0)" xlink:href="#aV"/><use transform="matrix(0.06296296296296294,0,0,0.06296296296296294,44.01111111111109,0)" xlink:href="#aW"/><use transform="matrix(0.05679012345679012,0,0,0.05679012345679012,56.60370370370368,0)" xlink:href="#aX"/><use transform="matrix(0.06296296296296294,0,0,0.06296296296296294,62.28271604938269,0)" xlink:href="#aR"/><use transform="matrix(0.06296296296296294,0,0,0.06296296296296294,73.61604938271603,0)" xlink:href="#aS"/><use transform="matrix(0.06296296296296294,0,0,0.06296296296296294,79.91234567901232,0)" xlink:href="#aY"/><use transform="matrix(0.06296296296296294,0,0,0.06296296296296294,87.4049382716049,0)" xlink:href="#aZ"/><use transform="matrix(0.06296296296296294,0,0,0.06296296296296294,92.37901234567897,0)" xlink:href="#aU"/><use transform="matrix(0.06296296296296294,0,0,0.06296296296296294,104.97160493827155,0)" xlink:href="#ba"/></g><use transform="matrix(0.06790123456790123,0,0,0.06790123456790123,0,0)" xlink:href="#aA" id="J"/><g id="K"><use transform="matrix(0.06296296296296294,0,0,0.06296296296296294,0,0)" xlink:href="#aQ"/><use transform="matrix(0.06296296296296294,0,0,0.06296296296296294,12.592592592592588,0)" xlink:href="#bd"/><use transform="matrix(0.06296296296296294,0,0,0.06296296296296294,25.185185185185176,0)" xlink:href="#bd"/><use transform="matrix(0.06296296296296294,0,0,0.06296296296296294,37.777777777777764,0)" xlink:href="#aY"/><use transform="matrix(0.06296296296296294,0,0,0.06296296296296294,45.27037037037036,0)" xlink:href="#aW"/><use transform="matrix(0.06296296296296294,0,0,0.06296296296296294,57.862962962962946,0)" xlink:href="#aR"/><use transform="matrix(0.06296296296296294,0,0,0.06296296296296294,69.19629629629628,0)" xlink:href="#aR"/><use transform="matrix(0.06296296296296294,0,0,0.06296296296296294,80.52962962962961,0)" xlink:href="#aW"/><use transform="matrix(0.06790123456790123,0,0,0.06790123456790123,93.1222222222222,0)" xlink:href="#aI"/></g><g id="L"><use transform="matrix(0.06790123456790123,0,0,0.06790123456790123,0,0)" xlink:href="#bk"/><use transform="matrix(0.06790123456790123,0,0,0.06790123456790123,12.222222222222221,0)" xlink:href="#aK"/><use transform="matrix(0.06790123456790123,0,0,0.06790123456790123,19.012345679012345,0)" xlink:href="#aH"/><use transform="matrix(0.06790123456790123,0,0,0.06790123456790123,27.09259259259259,0)" xlink:href="#aB"/><use transform="matrix(0.06790123456790123,0,0,0.06790123456790123,32.45679012345679,0)" xlink:href="#aJ"/><use transform="matrix(0.06790123456790123,0,0,0.06790123456790123,46.03703703703703,0)" xlink:href="#bj"/></g><use transform="matrix(0.06172839506172839,0,0,0.06172839506172839,0,0)" xlink:href="#aA" id="M"/><path fill-opacity=".85" d="M100-194c62-1 85 37 85 99 1 63-27 99-86 99S16-35 15-95c0-66 28-99 85-99zM99-20c44 1 53-31 53-75 0-43-8-75-51-75s-53 32-53 75 10 74 51 75" id="bx"/><g id="N"><use transform="matrix(0.06296296296296294,0,0,0.06296296296296294,0,0)" xlink:href="#aS"/><use transform="matrix(0.06296296296296294,0,0,0.06296296296296294,6.296296296296294,0)" xlink:href="#aW"/><use transform="matrix(0.06296296296296294,0,0,0.06296296296296294,18.888888888888882,0)" xlink:href="#aP"/><use transform="matrix(0.06296296296296294,0,0,0.06296296296296294,23.862962962962953,0)" xlink:href="#aW"/><use transform="matrix(0.06296296296296294,0,0,0.06296296296296294,36.45555555555554,0)" xlink:href="#bw"/><use transform="matrix(0.06296296296296294,0,0,0.06296296296296294,49.04814814814813,0)" xlink:href="#bf"/><use transform="matrix(0.06296296296296294,0,0,0.06296296296296294,61.64074074074072,0)" xlink:href="#bx"/><use transform="matrix(0.06296296296296294,0,0,0.06296296296296294,74.2333333333333,0)" xlink:href="#aU"/><use transform="matrix(0.06296296296296294,0,0,0.06296296296296294,86.8259259259259,0)" xlink:href="#aW"/><use transform="matrix(0.06172839506172839,0,0,0.06172839506172839,99.41851851851848,0)" xlink:href="#aI"/></g><g id="O"><use transform="matrix(0.06172839506172839,0,0,0.06172839506172839,0,0)" xlink:href="#aB"/><use transform="matrix(0.06172839506172839,0,0,0.06172839506172839,4.876543209876543,0)" xlink:href="#aJ"/><use transform="matrix(0.06172839506172839,0,0,0.06172839506172839,17.22222222222222,0)" xlink:href="#aK"/></g><g id="P"><use transform="matrix(0.06172839506172839,0,0,0.06172839506172839,0,0)" xlink:href="#ar"/><use transform="matrix(0.06172839506172839,0,0,0.06172839506172839,12.345679012345679,0)" xlink:href="#as"/><use transform="matrix(0.06172839506172839,0,0,0.06172839506172839,18.51851851851852,0)" xlink:href="#as"/><use transform="matrix(0.06172839506172839,0,0,0.06172839506172839,24.691358024691358,0)" xlink:href="#ar"/></g><path fill-opacity=".85" d="M110-194c64 0 96 36 96 99 0 64-35 99-97 99-61 0-95-36-95-99 0-62 34-99 96-99zm-1 164c35 0 45-28 45-65 0-40-10-65-43-65-34 0-45 26-45 65 0 36 10 65 43 65" id="by"/><g id="Q"><use transform="matrix(0.06296296296296294,0,0,0.06296296296296294,0,0)" xlink:href="#az"/><use transform="matrix(0.06296296296296294,0,0,0.06296296296296294,12.592592592592588,0)" xlink:href="#av"/><use transform="matrix(0.06296296296296294,0,0,0.06296296296296294,25.185185185185176,0)" xlink:href="#az"/><use transform="matrix(0.06296296296296294,0,0,0.06296296296296294,37.777777777777764,0)" xlink:href="#az"/><use transform="matrix(0.06296296296296294,0,0,0.06296296296296294,50.37037037037035,0)" xlink:href="#bh"/><use transform="matrix(0.06296296296296294,0,0,0.06296296296296294,56.66666666666664,0)" xlink:href="#by"/><use transform="matrix(0.06296296296296294,0,0,0.06296296296296294,70.45555555555552,0)" xlink:href="#bt"/></g><path fill="#333" d="M100-194c62-1 85 37 85 99 1 63-27 99-86 99S16-35 15-95c0-66 28-99 85-99zM99-20c44 1 53-31 53-75 0-43-8-75-51-75s-53 32-53 75 10 74 51 75" id="bz"/><g id="R"><use transform="matrix(0.06172839506172837,0,0,0.06172839506172837,0,0)" xlink:href="#aB"/><use transform="matrix(0.06172839506172837,0,0,0.06172839506172837,4.876543209876541,0)" xlink:href="#aC"/><use transform="matrix(0.06172839506172837,0,0,0.06172839506172837,17.222222222222214,0)" xlink:href="#aD"/><use transform="matrix(0.06172839506172837,0,0,0.06172839506172837,29.567901234567888,0)" xlink:href="#bk"/><use transform="matrix(0.06172839506172837,0,0,0.06172839506172837,40.679012345679,0)" xlink:href="#aF"/><use transform="matrix(0.06172839506172837,0,0,0.06172839506172837,53.02469135802467,0)" xlink:href="#bk"/><use transform="matrix(0.06172839506172837,0,0,0.06172839506172837,64.13580246913577,0)" xlink:href="#bk"/><use transform="matrix(0.06172839506172837,0,0,0.06172839506172837,75.24691358024688,0)" xlink:href="#aB"/><use transform="matrix(0.06172839506172837,0,0,0.06172839506172837,80.12345679012343,0)" xlink:href="#bz"/><use transform="matrix(0.06172839506172837,0,0,0.06172839506172837,92.4691358024691,0)" xlink:href="#aJ"/></g><g id="S"><use transform="matrix(0.06172839506172837,0,0,0.06172839506172837,0,0)" xlink:href="#aB"/><use transform="matrix(0.06172839506172837,0,0,0.06172839506172837,4.876543209876541,0)" xlink:href="#aJ"/><use transform="matrix(0.06172839506172837,0,0,0.06172839506172837,17.222222222222214,0)" xlink:href="#aK"/><use transform="matrix(0.06172839506172837,0,0,0.06172839506172837,23.39506172839505,0)" xlink:href="#aL"/><use transform="matrix(0.06172839506172837,0,0,0.06172839506172837,30.740740740740726,0)" xlink:href="#aM"/><use transform="matrix(0.06172839506172837,0,0,0.06172839506172837,43.0864197530864,0)" xlink:href="#aN"/><use transform="matrix(0.06172839506172837,0,0,0.06172839506172837,54.19753086419751,0)" xlink:href="#aO"/></g><path fill="#333" d="M179-190L93 31C79 59 56 82 12 73V49c39 6 53-20 64-50L1-190h34L92-34l54-156h33" id="bA"/><g id="T"><use transform="matrix(0.06172839506172837,0,0,0.06172839506172837,0,0)" xlink:href="#aK"/><use transform="matrix(0.06172839506172837,0,0,0.06172839506172837,6.172839506172837,0)" xlink:href="#bA"/><use transform="matrix(0.06172839506172837,0,0,0.06172839506172837,17.283950617283942,0)" xlink:href="#aM"/><use transform="matrix(0.06172839506172837,0,0,0.06172839506172837,29.629629629629616,0)" xlink:href="#aF"/><use transform="matrix(0.06172839506172837,0,0,0.06172839506172837,41.97530864197529,0)" xlink:href="#aD"/><use transform="matrix(0.06172839506172837,0,0,0.06172839506172837,54.32098765432096,0)" xlink:href="#bk"/><use transform="matrix(0.06172839506172837,0,0,0.06172839506172837,65.43209876543207,0)" xlink:href="#aM"/><use transform="matrix(0.06172839506172837,0,0,0.06172839506172837,77.77777777777774,0)" xlink:href="#bz"/><use transform="matrix(0.06172839506172837,0,0,0.06172839506172837,90.12345679012341,0)" xlink:href="#aH"/><use transform="matrix(0.06172839506172837,0,0,0.06172839506172837,97.46913580246908,0)" xlink:href="#aK"/></g><g id="U"><use transform="matrix(0.06172839506172837,0,0,0.06172839506172837,0,0)" xlink:href="#bk"/><use transform="matrix(0.06172839506172837,0,0,0.06172839506172837,11.111111111111107,0)" xlink:href="#aK"/><use transform="matrix(0.06172839506172837,0,0,0.06172839506172837,17.283950617283942,0)" xlink:href="#aH"/><use transform="matrix(0.06172839506172837,0,0,0.06172839506172837,24.62962962962962,0)" xlink:href="#aB"/><use transform="matrix(0.06172839506172837,0,0,0.06172839506172837,29.50617283950616,0)" xlink:href="#aJ"/><use transform="matrix(0.06172839506172837,0,0,0.06172839506172837,41.85185185185183,0)" xlink:href="#bj"/></g><use transform="matrix(0.06172839506172837,0,0,0.06172839506172837,0,0)" xlink:href="#aA" id="V"/><path fill-opacity=".85" d="M96-169c-40 0-48 33-48 73s9 75 48 75c24 0 41-14 43-38l32 2c-6 37-31 61-74 61-59 0-76-41-82-99-10-93 101-131 147-64 4 7 5 14 7 22l-32 3c-4-21-16-35-41-35" id="bB"/><path fill-opacity=".85" d="M84 4C-5 8 30-112 23-190h32v120c0 31 7 50 39 49 72-2 45-101 50-169h31l1 190h-30c-1-10 1-25-2-33-11 22-28 36-60 37" id="bC"/><g id="W"><use transform="matrix(0.06296296296296294,0,0,0.06296296296296294,0,0)" xlink:href="#aR"/><use transform="matrix(0.06296296296296294,0,0,0.06296296296296294,11.33333333333333,0)" xlink:href="#bB"/><use transform="matrix(0.06296296296296294,0,0,0.06296296296296294,22.66666666666666,0)" xlink:href="#bf"/><use transform="matrix(0.06296296296296294,0,0,0.06296296296296294,35.25925925925925,0)" xlink:href="#aW"/><use transform="matrix(0.06296296296296294,0,0,0.06296296296296294,47.85185185185184,0)" xlink:href="#bd"/><use transform="matrix(0.06296296296296294,0,0,0.06296296296296294,60.44444444444443,0)" xlink:href="#bC"/><use transform="matrix(0.06296296296296294,0,0,0.06296296296296294,73.03703703703701,0)" xlink:href="#aP"/><use transform="matrix(0.06296296296296294,0,0,0.06296296296296294,78.01111111111108,0)" xlink:href="#aW"/></g><g id="X"><use transform="matrix(0.06172839506172837,0,0,0.06172839506172837,0,0)" xlink:href="#bk"/><use transform="matrix(0.06172839506172837,0,0,0.06172839506172837,11.111111111111107,0)" xlink:href="#aK"/><use transform="matrix(0.06172839506172837,0,0,0.06172839506172837,17.283950617283942,0)" xlink:href="#aH"/><use transform="matrix(0.06172839506172837,0,0,0.06172839506172837,24.62962962962962,0)" xlink:href="#aB"/><use transform="matrix(0.06172839506172837,0,0,0.06172839506172837,29.50617283950616,0)" xlink:href="#aJ"/><use transform="matrix(0.06172839506172837,0,0,0.06172839506172837,41.85185185185183,0)" xlink:href="#bj"/></g><g id="Y"><use transform="matrix(0.06296296296296294,0,0,0.06296296296296294,0,0)" xlink:href="#aU"/><use transform="matrix(0.06296296296296294,0,0,0.06296296296296294,12.592592592592588,0)" xlink:href="#aQ"/><use transform="matrix(0.06296296296296294,0,0,0.06296296296296294,25.185185185185176,0)" xlink:href="#aV"/><use transform="matrix(0.06296296296296294,0,0,0.06296296296296294,44.01111111111109,0)" xlink:href="#aW"/><use transform="matrix(0.05679012345679012,0,0,0.05679012345679012,56.60370370370368,0)" xlink:href="#aX"/><use transform="matrix(0.06296296296296294,0,0,0.06296296296296294,62.28271604938269,0)" xlink:href="#aR"/><use transform="matrix(0.06296296296296294,0,0,0.06296296296296294,73.61604938271603,0)" xlink:href="#aS"/><use transform="matrix(0.06296296296296294,0,0,0.06296296296296294,79.91234567901232,0)" xlink:href="#aY"/><use transform="matrix(0.06296296296296294,0,0,0.06296296296296294,87.4049382716049,0)" xlink:href="#aZ"/><use transform="matrix(0.06296296296296294,0,0,0.06296296296296294,92.37901234567897,0)" xlink:href="#aU"/><use transform="matrix(0.06296296296296294,0,0,0.06296296296296294,104.97160493827155,0)" xlink:href="#ba"/></g><path fill="#333" d="M96-169c-40 0-48 33-48 73s9 75 48 75c24 0 41-14 43-38l32 2c-6 37-31 61-74 61-59 0-76-41-82-99-10-93 101-131 147-64 4 7 5 14 7 22l-32 3c-4-21-16-35-41-35" id="bD"/><path fill="#333" d="M141-36C126-15 110 5 73 4 37 3 15-17 15-53c-1-64 63-63 125-63 3-35-9-54-41-54-24 1-41 7-42 31l-33-3c5-37 33-52 76-52 45 0 72 20 72 64v82c-1 20 7 32 28 27v20c-31 9-61-2-59-35zM48-53c0 20 12 33 32 33 41-3 63-29 60-74-43 2-92-5-92 41" id="bE"/><path fill="#333" d="M106-169C34-169 62-67 57 0H25v-261h32l-1 103c12-21 28-36 61-36 89 0 53 116 60 194h-32v-121c2-32-8-49-39-48" id="bF"/><g id="Z"><use transform="matrix(0.06172839506172837,0,0,0.06172839506172837,0,0)" xlink:href="#aB"/><use transform="matrix(0.06172839506172837,0,0,0.06172839506172837,4.876543209876541,0)" xlink:href="#aC"/><use transform="matrix(0.06172839506172837,0,0,0.06172839506172837,17.222222222222214,0)" xlink:href="#aD"/><use transform="matrix(0.06172839506172837,0,0,0.06172839506172837,29.567901234567888,0)" xlink:href="#bD"/><use transform="matrix(0.06172839506172837,0,0,0.06172839506172837,40.679012345679,0)" xlink:href="#bz"/><use transform="matrix(0.06172839506172837,0,0,0.06172839506172837,53.02469135802467,0)" xlink:href="#bE"/><use transform="matrix(0.06172839506172837,0,0,0.06172839506172837,65.37037037037034,0)" xlink:href="#bD"/><use transform="matrix(0.06172839506172837,0,0,0.06172839506172837,76.48148148148144,0)" xlink:href="#bF"/><use transform="matrix(0.06172839506172837,0,0,0.06172839506172837,88.82716049382711,0)" xlink:href="#aI"/><use transform="matrix(0.06172839506172837,0,0,0.06172839506172837,94.99999999999994,0)" xlink:href="#aB"/><use transform="matrix(0.06172839506172837,0,0,0.06172839506172837,99.87654320987649,0)" xlink:href="#aJ"/><use transform="matrix(0.06172839506172837,0,0,0.06172839506172837,112.22222222222216,0)" xlink:href="#aK"/><use transform="matrix(0.06172839506172837,0,0,0.06172839506172837,118.39506172839499,0)" xlink:href="#aF"/><use transform="matrix(0.06172839506172837,0,0,0.06172839506172837,130.74074074074068,0)" xlink:href="#bj"/><use transform="matrix(0.06172839506172837,0,0,0.06172839506172837,143.08641975308635,0)" xlink:href="#aF"/><use transform="matrix(0.06172839506172837,0,0,0.06172839506172837,155.43209876543202,0)" xlink:href="#aH"/><use transform="matrix(0.06172839506172837,0,0,0.06172839506172837,162.7777777777777,0)" xlink:href="#aL"/><use transform="matrix(0.06172839506172837,0,0,0.06172839506172837,170.12345679012336,0)" xlink:href="#bl"/><use transform="matrix(0.06172839506172837,0,0,0.06172839506172837,183.64197530864186,0)" xlink:href="#aN"/><use transform="matrix(0.06172839506172837,0,0,0.06172839506172837,194.75308641975298,0)" xlink:href="#aO"/></g><g id="aa"><use transform="matrix(0.06172839506172837,0,0,0.06172839506172837,0,0)" xlink:href="#aB"/><use transform="matrix(0.06172839506172837,0,0,0.06172839506172837,4.876543209876541,0)" xlink:href="#aC"/><use transform="matrix(0.06172839506172837,0,0,0.06172839506172837,17.222222222222214,0)" xlink:href="#aD"/><use transform="matrix(0.06172839506172837,0,0,0.06172839506172837,29.567901234567888,0)" xlink:href="#aE"/><use transform="matrix(0.06172839506172837,0,0,0.06172839506172837,48.02469135802467,0)" xlink:href="#aF"/><use transform="matrix(0.06172839506172837,0,0,0.06172839506172837,60.37037037037034,0)" xlink:href="#aE"/><use transform="matrix(0.06172839506172837,0,0,0.06172839506172837,78.82716049382712,0)" xlink:href="#aG"/><use transform="matrix(0.06172839506172837,0,0,0.06172839506172837,91.17283950617279,0)" xlink:href="#aF"/><use transform="matrix(0.06172839506172837,0,0,0.06172839506172837,103.51851851851846,0)" xlink:href="#aH"/><use transform="matrix(0.06172839506172837,0,0,0.06172839506172837,110.86419753086413,0)" xlink:href="#aI"/></g><g id="ab"><use transform="matrix(0.06172839506172837,0,0,0.06172839506172837,0,0)" xlink:href="#aL"/><use transform="matrix(0.06172839506172837,0,0,0.06172839506172837,7.345679012345676,0)" xlink:href="#bl"/><use transform="matrix(0.06172839506172837,0,0,0.06172839506172837,20.86419753086419,0)" xlink:href="#aN"/><use transform="matrix(0.06172839506172837,0,0,0.06172839506172837,31.975308641975296,0)" xlink:href="#aO"/></g><path fill="#333" d="M101-251c82-7 93 87 43 132L82-64C71-53 59-42 53-27h129V0H18c2-99 128-94 128-182 0-28-16-43-45-43s-46 15-49 41l-32-3c6-41 34-60 81-64" id="bG"/><path fill="#333" d="M101-251c68 0 85 55 85 127S166 4 100 4C33 4 14-52 14-124c0-73 17-127 87-127zm-1 229c47 0 54-49 54-102s-4-102-53-102c-51 0-55 48-55 102 0 53 5 102 54 102" id="bH"/><g id="ac"><use transform="matrix(0.06172839506172839,0,0,0.06172839506172839,0,0)" xlink:href="#bG"/><use transform="matrix(0.06172839506172839,0,0,0.06172839506172839,12.345679012345679,0)" xlink:href="#bH"/><use transform="matrix(0.06172839506172839,0,0,0.06172839506172839,24.691358024691358,0)" xlink:href="#as"/><use transform="matrix(0.06172839506172839,0,0,0.06172839506172839,30.864197530864196,0)" xlink:href="#as"/><use transform="matrix(0.06172839506172839,0,0,0.06172839506172839,37.03703703703704,0)" xlink:href="#at"/></g><path fill-opacity=".85" d="M190-63c-7 42-38 67-86 67-59 0-84-38-90-98-12-110 154-137 174-36l-49 2c-2-19-15-32-35-32-30 0-35 28-38 64-6 74 65 87 74 30" id="bI"/><path fill-opacity=".85" d="M114-157C55-157 80-60 75 0H25v-261h50l-1 109c12-26 28-41 61-42 86-1 58 113 63 194h-50c-7-57 23-157-34-157" id="bJ"/><g id="ad"><use transform="matrix(0.06296296296296294,0,0,0.06296296296296294,0,0)" xlink:href="#bI"/><use transform="matrix(0.06296296296296294,0,0,0.06296296296296294,12.592592592592588,0)" xlink:href="#by"/><use transform="matrix(0.06296296296296294,0,0,0.06296296296296294,26.381481481481472,0)" xlink:href="#bu"/><use transform="matrix(0.06296296296296294,0,0,0.06296296296296294,38.97407407407406,0)" xlink:href="#bI"/><use transform="matrix(0.06296296296296294,0,0,0.06296296296296294,51.56666666666665,0)" xlink:href="#bJ"/></g><g id="ae"><use transform="matrix(0.06172839506172837,0,0,0.06172839506172837,0,0)" xlink:href="#aB"/><use transform="matrix(0.06172839506172837,0,0,0.06172839506172837,4.876543209876541,0)" xlink:href="#aC"/><use transform="matrix(0.06172839506172837,0,0,0.06172839506172837,17.222222222222214,0)" xlink:href="#aD"/><use transform="matrix(0.06172839506172837,0,0,0.06172839506172837,29.567901234567888,0)" xlink:href="#bD"/><use transform="matrix(0.06172839506172837,0,0,0.06172839506172837,40.679012345679,0)" xlink:href="#bz"/><use transform="matrix(0.06172839506172837,0,0,0.06172839506172837,53.02469135802467,0)" xlink:href="#bE"/><use transform="matrix(0.06172839506172837,0,0,0.06172839506172837,65.37037037037034,0)" xlink:href="#bD"/><use transform="matrix(0.06172839506172837,0,0,0.06172839506172837,76.48148148148144,0)" xlink:href="#bF"/><use transform="matrix(0.06172839506172837,0,0,0.06172839506172837,88.82716049382711,0)" xlink:href="#aI"/><use transform="matrix(0.06172839506172837,0,0,0.06172839506172837,94.99999999999994,0)" xlink:href="#aB"/><use transform="matrix(0.06172839506172837,0,0,0.06172839506172837,99.87654320987649,0)" xlink:href="#aJ"/><use transform="matrix(0.06172839506172837,0,0,0.06172839506172837,112.22222222222216,0)" xlink:href="#aK"/><use transform="matrix(0.06172839506172837,0,0,0.06172839506172837,118.39506172839499,0)" xlink:href="#aF"/><use transform="matrix(0.06172839506172837,0,0,0.06172839506172837,130.74074074074068,0)" xlink:href="#bj"/><use transform="matrix(0.06172839506172837,0,0,0.06172839506172837,143.08641975308635,0)" xlink:href="#aF"/><use transform="matrix(0.06172839506172837,0,0,0.06172839506172837,155.43209876543202,0)" xlink:href="#aH"/><use transform="matrix(0.06172839506172837,0,0,0.06172839506172837,162.7777777777777,0)" xlink:href="#aL"/><use transform="matrix(0.06172839506172837,0,0,0.06172839506172837,170.12345679012336,0)" xlink:href="#aM"/><use transform="matrix(0.06172839506172837,0,0,0.06172839506172837,182.46913580246903,0)" xlink:href="#aN"/><use transform="matrix(0.06172839506172837,0,0,0.06172839506172837,193.58024691358014,0)" xlink:href="#aO"/></g><use transform="matrix(0.06172839506172837,0,0,0.06172839506172837,0,0)" xlink:href="#aA" id="af"/><g id="ag"><use transform="matrix(0.06296296296296294,0,0,0.06296296296296294,0,0)" xlink:href="#aP"/><use transform="matrix(0.06296296296296294,0,0,0.06296296296296294,4.974074074074072,0)" xlink:href="#aQ"/><use transform="matrix(0.06296296296296294,0,0,0.06296296296296294,17.56666666666666,0)" xlink:href="#aR"/><use transform="matrix(0.06296296296296294,0,0,0.06296296296296294,28.89999999999999,0)" xlink:href="#aS"/><use transform="matrix(0.06296296296296294,0,0,0.06296296296296294,35.19629629629628,0)" xlink:href="#aT"/><use transform="matrix(0.06296296296296294,0,0,0.06296296296296294,47.78888888888887,0)" xlink:href="#aU"/><use transform="matrix(0.06296296296296294,0,0,0.06296296296296294,60.38148148148146,0)" xlink:href="#aQ"/><use transform="matrix(0.06296296296296294,0,0,0.06296296296296294,72.97407407407405,0)" xlink:href="#aV"/><use transform="matrix(0.06296296296296294,0,0,0.06296296296296294,91.79999999999997,0)" xlink:href="#aW"/></g><g id="ah"><use transform="matrix(0.06296296296296294,0,0,0.06296296296296294,0,0)" xlink:href="#aR"/><use transform="matrix(0.06296296296296294,0,0,0.06296296296296294,11.33333333333333,0)" xlink:href="#aS"/><use transform="matrix(0.06296296296296294,0,0,0.06296296296296294,17.629629629629626,0)" xlink:href="#aY"/><use transform="matrix(0.06296296296296294,0,0,0.06296296296296294,25.122222222222216,0)" xlink:href="#aZ"/><use transform="matrix(0.06296296296296294,0,0,0.06296296296296294,30.096296296296288,0)" xlink:href="#aU"/><use transform="matrix(0.06296296296296294,0,0,0.06296296296296294,42.688888888888876,0)" xlink:href="#ba"/></g><g id="ai"><use transform="matrix(0.06296296296296294,0,0,0.06296296296296294,0,0)" xlink:href="#bb"/><use transform="matrix(0.06296296296296294,0,0,0.06296296296296294,6.296296296296294,0)" xlink:href="#aZ"/><use transform="matrix(0.06296296296296294,0,0,0.06296296296296294,11.270370370370365,0)" xlink:href="#aY"/><use transform="matrix(0.06296296296296294,0,0,0.06296296296296294,18.762962962962956,0)" xlink:href="#aR"/><use transform="matrix(0.06296296296296294,0,0,0.06296296296296294,30.096296296296288,0)" xlink:href="#aS"/></g><g id="aj"><use transform="matrix(0.06296296296296294,0,0,0.06296296296296294,0,0)" xlink:href="#aU"/><use transform="matrix(0.06296296296296294,0,0,0.06296296296296294,12.592592592592588,0)" xlink:href="#aQ"/><use transform="matrix(0.06296296296296294,0,0,0.06296296296296294,25.185185185185176,0)" xlink:href="#aV"/><use transform="matrix(0.06296296296296294,0,0,0.06296296296296294,44.01111111111109,0)" xlink:href="#aW"/><use transform="matrix(0.08024691358024691,0,0,0.08024691358024691,56.60370370370368,0)" xlink:href="#aI"/><use transform="matrix(0.06296296296296294,0,0,0.06296296296296294,64.62839506172837,0)" xlink:href="#aR"/><use transform="matrix(0.06296296296296294,0,0,0.06296296296296294,75.9617283950617,0)" xlink:href="#aS"/><use transform="matrix(0.06296296296296294,0,0,0.06296296296296294,82.25802469135799,0)" xlink:href="#aY"/><use transform="matrix(0.06296296296296294,0,0,0.06296296296296294,89.75061728395058,0)" xlink:href="#aZ"/><use transform="matrix(0.06296296296296294,0,0,0.06296296296296294,94.72469135802464,0)" xlink:href="#aU"/><use transform="matrix(0.06296296296296294,0,0,0.06296296296296294,107.31728395061722,0)" xlink:href="#ba"/></g><g id="ak"><use transform="matrix(0.06296296296296294,0,0,0.06296296296296294,0,0)" xlink:href="#aQ"/><use transform="matrix(0.06296296296296294,0,0,0.06296296296296294,12.592592592592588,0)" xlink:href="#ba"/><use transform="matrix(0.06296296296296294,0,0,0.06296296296296294,25.185185185185176,0)" xlink:href="#aW"/></g><g id="al"><use transform="matrix(0.06296296296296294,0,0,0.06296296296296294,0,0)" xlink:href="#aZ"/><use transform="matrix(0.06296296296296294,0,0,0.06296296296296294,4.974074074074072,0)" xlink:href="#aU"/><use transform="matrix(0.06296296296296294,0,0,0.06296296296296294,17.56666666666666,0)" xlink:href="#aS"/></g><g id="am"><use transform="matrix(0.06296296296296294,0,0,0.06296296296296294,0,0)" xlink:href="#aR"/><use transform="matrix(0.06296296296296294,0,0,0.06296296296296294,11.33333333333333,0)" xlink:href="#bw"/><use transform="matrix(0.06296296296296294,0,0,0.06296296296296294,23.925925925925917,0)" xlink:href="#aW"/><use transform="matrix(0.06296296296296294,0,0,0.06296296296296294,36.518518518518505,0)" xlink:href="#bB"/><use transform="matrix(0.06296296296296294,0,0,0.06296296296296294,47.85185185185183,0)" xlink:href="#aZ"/><use transform="matrix(0.06296296296296294,0,0,0.06296296296296294,52.82592592592591,0)" xlink:href="#aQ"/><use transform="matrix(0.06296296296296294,0,0,0.06296296296296294,65.4185185185185,0)" xlink:href="#aP"/><use transform="matrix(0.06296296296296294,0,0,0.06296296296296294,70.39259259259256,0)" xlink:href="#aS"/><use transform="matrix(0.06296296296296294,0,0,0.06296296296296294,76.68888888888885,0)" xlink:href="#bn"/></g><g id="an"><use transform="matrix(0.06172839506172839,0,0,0.06172839506172839,0,0)" xlink:href="#bG"/><use transform="matrix(0.06172839506172839,0,0,0.06172839506172839,12.345679012345679,0)" xlink:href="#as"/><use transform="matrix(0.06172839506172839,0,0,0.06172839506172839,18.51851851851852,0)" xlink:href="#as"/><use transform="matrix(0.06172839506172839,0,0,0.06172839506172839,24.691358024691358,0)" xlink:href="#at"/></g><path d="M24 0v-261h32V0H24" id="bK"/><path d="M100-194c63 0 86 42 84 106H49c0 40 14 67 53 68 26 1 43-12 49-29l28 8c-11 28-37 45-77 45C44 4 14-33 15-96c1-61 26-98 85-98zm52 81c6-60-76-77-97-28-3 7-6 17-6 28h103" id="bL"/><path d="M85-194c31 0 48 13 60 33l-1-100h32l1 261h-30c-2-10 0-23-3-31C134-8 116 4 85 4 32 4 16-35 15-94c0-66 23-100 70-100zm9 24c-40 0-46 34-46 75 0 40 6 74 45 74 42 0 51-32 51-76 0-42-9-74-50-73" id="bM"/><g id="ao"><use transform="matrix(0.05,0,0,0.05,0,0)" xlink:href="#bK"/><use transform="matrix(0.05,0,0,0.05,3.95,0)" xlink:href="#bL"/><use transform="matrix(0.05,0,0,0.05,13.949999999999998,0)" xlink:href="#bM"/></g><g id="ap"><use transform="matrix(0.06296296296296294,0,0,0.06296296296296294,0,0)" xlink:href="#aQ"/><use transform="matrix(0.06296296296296294,0,0,0.06296296296296294,12.592592592592588,0)" xlink:href="#bB"/><use transform="matrix(0.06296296296296294,0,0,0.06296296296296294,23.925925925925917,0)" xlink:href="#bB"/><use transform="matrix(0.06296296296296294,0,0,0.06296296296296294,35.259259259259245,0)" xlink:href="#bx"/><use transform="matrix(0.06296296296296294,0,0,0.06296296296296294,47.85185185185183,0)" xlink:href="#aV"/><use transform="matrix(0.06296296296296294,0,0,0.06296296296296294,66.67777777777775,0)" xlink:href="#aV"/><use transform="matrix(0.06296296296296294,0,0,0.06296296296296294,85.50370370370366,0)" xlink:href="#bx"/><use transform="matrix(0.06296296296296294,0,0,0.06296296296296294,98.09629629629626,0)" xlink:href="#bd"/><use transform="matrix(0.06296296296296294,0,0,0.06296296296296294,110.68888888888884,0)" xlink:href="#aQ"/><use transform="matrix(0.06296296296296294,0,0,0.06296296296296294,123.28148148148142,0)" xlink:href="#aS"/><use transform="matrix(0.06296296296296294,0,0,0.06296296296296294,129.57777777777773,0)" xlink:href="#aW"/></g><g id="aq"><use transform="matrix(0.06296296296296294,0,0,0.06296296296296294,0,0)" xlink:href="#aY"/><use transform="matrix(0.06296296296296294,0,0,0.06296296296296294,7.49259259259259,0)" xlink:href="#aW"/><use transform="matrix(0.06296296296296294,0,0,0.06296296296296294,20.08518518518518,0)" xlink:href="#ba"/><use transform="matrix(0.06296296296296294,0,0,0.06296296296296294,32.67777777777776,0)" xlink:href="#aZ"/><use transform="matrix(0.06296296296296294,0,0,0.06296296296296294,37.65185185185184,0)" xlink:href="#aR"/><use transform="matrix(0.06296296296296294,0,0,0.06296296296296294,48.985185185185166,0)" xlink:href="#aS"/><use transform="matrix(0.06296296296296294,0,0,0.06296296296296294,55.281481481481464,0)" xlink:href="#aW"/><use transform="matrix(0.06296296296296294,0,0,0.06296296296296294,67.87407407407406,0)" xlink:href="#aY"/></g></defs></g></svg>